# xmcd
#
# Track frame offsets:
#	150
#	19233
#	44183
#	59878
#	75880
#
# Disc length: 1222 seconds
#
# Revision: 1
# Processed by: cddbd v1.5.2PL0 Copyright (c) Steve Scherf et al.
# Submitted via: audiograbber 1.83.01
#
DISCID=4004c405
DTITLE=Doc Randolph Howes - In Memory of 11-9-2001
DYEAR=2004
DGENRE=
TTITLE0=These Unites State Of America
TTITLE1=In God We Trust
TTITLE2=Pass Trough The Portals Of Glory
TTITLE3=How Many Crosses Can I Carry, Lord
TTITLE4=Taller On Our Knees
EXTD=
EXTT0=
EXTT1=
EXTT2=
EXTT3=
EXTT4=
PLAYORDER=
